{
  "images": [
    {"uri": "data:image/png;base64,"},
    {"uri": "data:image/png;base64,"},
    {"uri": "data:image/png;base64,"},
    {"uri": "data:image/png;base64,"},
    {"uri": "data:image/png;base64,"},
    {"uri": "data:image/png;base64,"},
    {"uri": "data:image/png;base64,"},
    {"uri": "data:image/png;base64,"}
  ],
  "accessors": [
    {
      "componentType": 5126,
      "min": [
        -3,
        -8,
        -1
      ],
      "byteOffset": 0,
      "bufferView": 0,
      "max": [
        3,
        3,
        0
      ],
      "count": 180,
      "type": "VEC3"
    },
    {
      "componentType": 5126,
      "byteOffset": 0,
      "bufferView": 1,
      "count": 180,
      "type": "VEC3"
    },
    {
      "componentType": 5126,
      "byteOffset": 0,
      "bufferView": 2,
      "count": 180,
      "type": "VEC2"
    },
    {
      "componentType": 5126,
      "byteOffset": 0,
      "bufferView": 2,
      "count": 180,
      "type": "VEC2"
    },
    {
      "componentType": 5126,
      "min": [
        -5,
        -8,
        -4
      ],
      "byteOffset": 0,
      "bufferView": 3,
      "max": [
        4,
        -1,
        1
      ],
      "count": 72,
      "type": "VEC3"
    },
    {
      "componentType": 5126,
      "byteOffset": 0,
      "bufferView": 4,
      "count": 72,
      "type": "VEC3"
    },
    {
      "componentType": 5126,
      "byteOffset": 0,
      "bufferView": 5,
      "count": 72,
      "type": "VEC2"
    },
    {
      "componentType": 5126,
      "byteOffset": 0,
      "bufferView": 5,
      "count": 72,
      "type": "VEC2"
    },
    {
      "componentType": 5126,
      "min": [
        -2,
        -8,
        -7
      ],
      "byteOffset": 0,
      "bufferView": 6,
      "max": [
        1,
        -6,
        4
      ],
      "count": 96,
      "type": "VEC3"
    },
    {
      "componentType": 5126,
      "byteOffset": 0,
      "bufferView": 7,
      "count": 96,
      "type": "VEC3"
    },
    {
      "componentType": 5126,
      "byteOffset": 0,
      "bufferView": 8,
      "count": 96,
      "type": "VEC2"
    },
    {
      "componentType": 5126,
      "byteOffset": 0,
      "bufferView": 8,
      "count": 96,
      "type": "VEC2"
    },
    {
      "componentType": 5126,
      "min": [
        -2,
        -8,
        -1
      ],
      "byteOffset": 0,
      "bufferView": 9,
      "max": [
        0,
        -3,
        1
      ],
      "count": 36,
      "type": "VEC3"
    },
    {
      "componentType": 5126,
      "byteOffset": 0,
      "bufferView": 10,
      "count": 36,
      "type": "VEC3"
    },
    {
      "componentType": 5126,
      "byteOffset": 0,
      "bufferView": 11,
      "count": 36,
      "type": "VEC2"
    },
    {
      "componentType": 5126,
      "byteOffset": 0,
      "bufferView": 11,
      "count": 36,
      "type": "VEC2"
    }
  ],
  "textures": [
    {
      "source": 0,
      "sampler": 0
    },
    {
      "source": 1,
      "sampler": 0
    },
    {
      "source": 2,
      "sampler": 0
    },
    {
      "source": 3,
      "sampler": 0
    },
    {
      "source": 4,
      "sampler": 0
    },
    {
      "source": 5,
      "sampler": 0
    },
    {
      "source": 6,
      "sampler": 0
    },
    {
      "source": 7,
      "sampler": 0
    }
  ],
  "buffers": [
    {
      "byteLength": 2160,
      "uri": "data:application/octet-stream;base64,"
    },
    {
      "byteLength": 2160,
      "uri": "data:application/octet-stream;base64,"
    },
    {
      "byteLength": 1440,
      "uri": "data:application/octet-stream;base64,"
    },
    {
      "byteLength": 864,
      "uri": "data:application/octet-stream;base64,"
    },
    {
      "byteLength": 864,
      "uri": "data:application/octet-stream;base64,"
    },
    {
      "byteLength": 576,
      "uri": "data:application/octet-stream;base64,"
    },
    {
      "byteLength": 1152,
      "uri": "data:application/octet-stream;base64,"
    },
    {
      "byteLength": 1152,
      "uri": "data:application/octet-stream;base64,"
    },
    {
      "byteLength": 768,
      "uri": "data:application/octet-stream;base64,"
    },
    {
      "byteLength": 432,
      "uri": "data:application/octet-stream;base64,"
    },
    {
      "byteLength": 432,
      "uri": "data:application/octet-stream;base64,"
    },
    {
      "byteLength": 288,
      "uri": "data:application/octet-stream;base64,"
    }
  ],
  "bufferViews": [
    {
      "byteOffset": 0,
      "byteLength": 2160,
      "buffer": 0,
      "byteStride": 12,
      "target": 34962
    },
    {
      "byteOffset": 0,
      "byteLength": 2160,
      "buffer": 1,
      "byteStride": 12,
      "target": 34962
    },
    {
      "byteOffset": 0,
      "byteLength": 1440,
      "buffer": 2,
      "byteStride": 8,
      "target": 34962
    },
    {
      "byteOffset": 0,
      "byteLength": 864,
      "buffer": 3,
      "byteStride": 12,
      "target": 34962
    },
    {
      "byteOffset": 0,
      "byteLength": 864,
      "buffer": 4,
      "byteStride": 12,
      "target": 34962
    },
    {
      "byteOffset": 0,
      "byteLength": 576,
      "buffer": 5,
      "byteStride": 8,
      "target": 34962
    },
    {
      "byteOffset": 0,
      "byteLength": 1152,
      "buffer": 6,
      "byteStride": 12,
      "target": 34962
    },
    {
      "byteOffset": 0,
      "byteLength": 1152,
      "buffer": 7,
      "byteStride": 12,
      "target": 34962
    },
    {
      "byteOffset": 0,
      "byteLength": 768,
      "buffer": 8,
      "byteStride": 8,
      "target": 34962
    },
    {
      "byteOffset": 0,
      "byteLength": 432,
      "buffer": 9,
      "byteStride": 12,
      "target": 34962
    },
    {
      "byteOffset": 0,
      "byteLength": 432,
      "buffer": 10,
      "byteStride": 12,
      "target": 34962
    },
    {
      "byteOffset": 0,
      "byteLength": 288,
      "buffer": 11,
      "byteStride": 8,
      "target": 34962
    }
  ],
  "samplers": [{
    "minFilter": 9728,
    "wrapT": 33071,
    "wrapS": 33071,
    "magFilter": 9728
  }],
  "scene": 0,
  "nodes": [
    {
      "children": [
        1,
        2
      ],
      "rotation": [
        0,
        -1,
        0,
        -4.371138828673793E-8
      ],
      "translation": [
        0,
        0,
        0
      ],
      "name": "Root-Global",
      "scale": [
        -1,
        1,
        1
      ]
    },
    {
      "rotation": [
        0,
        0,
        0,
        1
      ],
      "translation": [
        0,
        0,
        0
      ],
      "name": "Root-Local",
      "scale": [
        1,
        1,
        1
      ]
    },
    {
      "children": [
        3,
        4,
        6,
        8,
        10,
        18
      ],
      "rotation": [
        0,
        0,
        0,
        1
      ],
      "translation": [
        -0.8974514007568359,
        5.343803405761719,
        0
      ],
      "name": "Rabbit-Global",
      "scale": [
        0.6000000238418579,
        0.6000000238418579,
        0.6000000238418579
      ]
    },
    {
      "rotation": [
        0,
        0,
        0,
        1
      ],
      "translation": [
        0,
        0,
        0
      ],
      "name": "Rabbit-Local",
      "scale": [
        1,
        1,
        1
      ]
    },
    {
      "children": [5],
      "rotation": [
        0.04281667619943619,
        0.022286390885710716,
        -0.16905835270881653,
        0.9844233393669128
      ],
      "translation": [
        11.05996036529541,
        22.335857391357422,
        3.8973448276519775
      ],
      "name": "RabbitEarRight-Global",
      "scale": [
        1,
        1,
        1
      ]
    },
    {
      "rotation": [
        0,
        0,
        0,
        1
      ],
      "translation": [
        -2.468348741531372,
        1.1444091796875E-5,
        3.0994415283203125E-6
      ],
      "name": "RabbitEarRight-Local",
      "scale": [
        1,
        1,
        1
      ],
      "mesh": 0
    },
    {
      "children": [7],
      "rotation": [
        0.011976964771747589,
        0.11182935535907745,
        -0.10581569373607635,
        -0.9880049824714661
      ],
      "translation": [
        -3.12419056892395,
        24.353601455688477,
        2.6090848445892334
      ],
      "name": "RabbitEarLeft-Global",
      "scale": [
        1,
        1,
        1
      ]
    },
    {
      "rotation": [
        0,
        0,
        0,
        1
      ],
      "translation": [
        -2.468348741531372,
        1.1444091796875E-5,
        3.0994415283203125E-6
      ],
      "name": "RabbitEarLeft-Local",
      "scale": [
        1,
        1,
        1
      ],
      "mesh": 0
    },
    {
      "children": [9],
      "rotation": [
        0,
        0,
        0,
        1
      ],
      "translation": [
        1.939459204673767,
        18.325191497802734,
        5.766524791717529
      ],
      "name": "Body-Global",
      "scale": [
        2,
        2,
        2
      ]
    },
    {
      "rotation": [
        0,
        0,
        0,
        1
      ],
      "translation": [
        0,
        0,
        0
      ],
      "name": "Body-Local",
      "scale": [
        1,
        1,
        1
      ],
      "mesh": 1
    },
    {
      "children": [
        11,
        12,
        14,
        16
      ],
      "rotation": [
        0,
        0,
        0,
        1
      ],
      "translation": [
        8.059532165527344,
        0,
        0
      ],
      "name": "LegRight-Global",
      "scale": [
        1,
        1,
        1
      ]
    },
    {
      "rotation": [
        0,
        0,
        0,
        1
      ],
      "translation": [
        0,
        0,
        0
      ],
      "name": "LegRight-Local",
      "scale": [
        1,
        1,
        1
      ]
    },
    {
      "children": [13],
      "rotation": [
        0,
        0,
        0,
        1
      ],
      "translation": [
        -2,
        0,
        0
      ],
      "name": "FootLeft-Global",
      "scale": [
        1,
        1,
        1
      ]
    },
    {
      "rotation": [
        0,
        0,
        0,
        1
      ],
      "translation": [
        0,
        0,
        0
      ],
      "name": "FootLeft-Local",
      "scale": [
        1,
        1,
        1
      ],
      "mesh": 2
    },
    {
      "children": [15],
      "rotation": [
        0,
        0,
        0,
        1
      ],
      "translation": [
        -1.685318946838379,
        3.3842670917510986,
        0
      ],
      "name": "LegBottom-Global",
      "scale": [
        1,
        1,
        1
      ]
    },
    {
      "rotation": [
        0,
        0,
        0,
        1
      ],
      "translation": [
        -0.033344268798828125,
        -1.5370664596557617,
        1.5965251922607422
      ],
      "name": "LegBottom-Local",
      "scale": [
        1,
        1,
        1
      ],
      "mesh": 3
    },
    {
      "children": [17],
      "rotation": [
        0,
        0,
        0,
        1
      ],
      "translation": [
        -1.685318946838379,
        3.3842670917510986,
        0
      ],
      "name": "LegTop-Global",
      "scale": [
        1,
        1,
        1
      ]
    },
    {
      "rotation": [
        0,
        0,
        0,
        1
      ],
      "translation": [
        -0.033344268798828125,
        3.774669647216797,
        1.5965251922607422
      ],
      "name": "LegTop-Local",
      "scale": [
        1,
        1,
        1
      ],
      "mesh": 3
    },
    {
      "children": [
        19,
        20,
        22,
        24
      ],
      "rotation": [
        0,
        0,
        0,
        1
      ],
      "translation": [
        0,
        0,
        0
      ],
      "name": "LegLeft-Global",
      "scale": [
        1,
        1,
        1
      ]
    },
    {
      "rotation": [
        0,
        0,
        0,
        1
      ],
      "translation": [
        -0.6058835983276367,
        0,
        0
      ],
      "name": "LegLeft-Local",
      "scale": [
        1,
        1,
        1
      ]
    },
    {
      "children": [21],
      "rotation": [
        0,
        0,
        0,
        1
      ],
      "translation": [
        -2,
        0,
        0
      ],
      "name": "FootLeft-Global",
      "scale": [
        1,
        1,
        1
      ]
    },
    {
      "rotation": [
        0,
        0,
        0,
        1
      ],
      "translation": [
        0,
        0,
        0
      ],
      "name": "FootLeft-Local",
      "scale": [
        1,
        1,
        1
      ],
      "mesh": 2
    },
    {
      "children": [23],
      "rotation": [
        0,
        0,
        0,
        1
      ],
      "translation": [
        -1.685318946838379,
        3.3842670917510986,
        0
      ],
      "name": "LegBottom-Global",
      "scale": [
        1,
        1,
        1
      ]
    },
    {
      "rotation": [
        0,
        0,
        0,
        1
      ],
      "translation": [
        -0.033344268798828125,
        -1.5370664596557617,
        1.5965251922607422
      ],
      "name": "LegBottom-Local",
      "scale": [
        1,
        1,
        1
      ],
      "mesh": 3
    },
    {
      "children": [25],
      "rotation": [
        0,
        0,
        0,
        1
      ],
      "translation": [
        -1.685318946838379,
        3.3842670917510986,
        0
      ],
      "name": "LegTop-Global",
      "scale": [
        1,
        1,
        1
      ]
    },
    {
      "rotation": [
        0,
        0,
        0,
        1
      ],
      "translation": [
        -0.033344268798828125,
        3.774669647216797,
        1.5965251922607422
      ],
      "name": "LegTop-Local",
      "scale": [
        1,
        1,
        1
      ],
      "mesh": 3
    }
  ],
  "materials": [
    {
      "name": "RabbitEar-Material",
      "emissiveTexture": {
        "index": 1,
        "texCoord": 1
      },
      "pbrMetallicRoughness": {
        "baseColorTexture": {"index": 0},
        "metallicFactor": 0,
        "roughnessFactor": 1
      },
      "emissiveFactor": [
        1,
        1,
        1
      ]
    },
    {
      "name": "RabbitBody-Material",
      "emissiveTexture": {
        "index": 3,
        "texCoord": 1
      },
      "pbrMetallicRoughness": {
        "baseColorTexture": {"index": 2},
        "metallicFactor": 0,
        "roughnessFactor": 1
      },
      "emissiveFactor": [
        1,
        1,
        1
      ]
    },
    {
      "name": "RabbitFoot-Material",
      "emissiveTexture": {
        "index": 5,
        "texCoord": 1
      },
      "pbrMetallicRoughness": {
        "baseColorTexture": {"index": 4},
        "metallicFactor": 0,
        "roughnessFactor": 1
      },
      "emissiveFactor": [
        1,
        1,
        1
      ]
    },
    {
      "name": "RabbitLeg-Material",
      "emissiveTexture": {
        "index": 7,
        "texCoord": 1
      },
      "pbrMetallicRoughness": {
        "baseColorTexture": {"index": 6},
        "metallicFactor": 0,
        "roughnessFactor": 1
      },
      "emissiveFactor": [
        1,
        1,
        1
      ]
    }
  ],
  "animations": [],
  "scenes": [{"nodes": [0]}],
  "asset": {
    "generator": "VoxEdit Alpha v0.12.0e4a9b2",
    "version": "2.0"
  },
  "meshes": [
    {
      "primitives": [{
        "mode": 4,
        "material": 0,
        "attributes": {
          "POSITION": 0,
          "TEXCOORD_1": 3,
          "TEXCOORD_0": 2,
          "NORMAL": 1
        }
      }],
      "name": "RabbitEar-Mesh"
    },
    {
      "primitives": [{
        "mode": 4,
        "material": 1,
        "attributes": {
          "POSITION": 4,
          "TEXCOORD_1": 7,
          "TEXCOORD_0": 6,
          "NORMAL": 5
        }
      }],
      "name": "RabbitBody-Mesh"
    },
    {
      "primitives": [{
        "mode": 4,
        "material": 2,
        "attributes": {
          "POSITION": 8,
          "TEXCOORD_1": 11,
          "TEXCOORD_0": 10,
          "NORMAL": 9
        }
      }],
      "name": "RabbitFoot-Mesh"
    },
    {
      "primitives": [{
        "mode": 4,
        "material": 3,
        "attributes": {
          "POSITION": 12,
          "TEXCOORD_1": 15,
          "TEXCOORD_0": 14,
          "NORMAL": 13
        }
      }],
      "name": "RabbitLeg-Mesh"
    }
  ]
}